<mxfile host="app.diagrams.net" modified="2023-11-20T18:08:17.184Z" agent="Mozilla/5.0 (Windows NT 10.0; Win64; x64) AppleWebKit/537.36 (KHTML, like Gecko) Chrome/116.0.0.0 Safari/537.36 OPR/102.0.0.0" etag="q853VQQxEz6rxmWQC97H" version="22.0.0" type="device">
  <diagram name="Página-1" id="oYaqLWmH6igO-tWO1Hi1">
    <mxGraphModel dx="1161" dy="638" grid="1" gridSize="10" guides="1" tooltips="1" connect="1" arrows="1" fold="1" page="1" pageScale="1" pageWidth="583" pageHeight="827" math="0" shadow="0">
      <root>
        <mxCell id="0" />
        <mxCell id="1" parent="0" />
        <mxCell id="AV-70D5icaVJFFxwLQuQ-29" style="orthogonalLoop=1;jettySize=auto;html=1;exitX=1;exitY=1;exitDx=0;exitDy=0;rounded=0;endArrow=none;endFill=0;" edge="1" parent="1" source="AV-70D5icaVJFFxwLQuQ-11" target="AV-70D5icaVJFFxwLQuQ-12">
          <mxGeometry relative="1" as="geometry" />
        </mxCell>
        <mxCell id="AV-70D5icaVJFFxwLQuQ-11" value="&lt;u&gt;ID_terreno&lt;/u&gt;" style="ellipse;whiteSpace=wrap;html=1;align=center;" vertex="1" parent="1">
          <mxGeometry x="55" y="40" width="70" height="40" as="geometry" />
        </mxCell>
        <mxCell id="AV-70D5icaVJFFxwLQuQ-12" value="Terreno" style="whiteSpace=wrap;html=1;align=center;" vertex="1" parent="1">
          <mxGeometry x="130" y="120" width="100" height="40" as="geometry" />
        </mxCell>
        <mxCell id="AV-70D5icaVJFFxwLQuQ-13" value="Rio" style="whiteSpace=wrap;html=1;align=center;" vertex="1" parent="1">
          <mxGeometry x="30" y="250" width="100" height="40" as="geometry" />
        </mxCell>
        <mxCell id="AV-70D5icaVJFFxwLQuQ-14" value="Cidade" style="whiteSpace=wrap;html=1;align=center;" vertex="1" parent="1">
          <mxGeometry x="260" y="250" width="100" height="40" as="geometry" />
        </mxCell>
        <mxCell id="AV-70D5icaVJFFxwLQuQ-15" value="Floresta" style="whiteSpace=wrap;html=1;align=center;" vertex="1" parent="1">
          <mxGeometry x="55" y="350" width="100" height="40" as="geometry" />
        </mxCell>
        <mxCell id="AV-70D5icaVJFFxwLQuQ-16" value="Montanha" style="whiteSpace=wrap;html=1;align=center;" vertex="1" parent="1">
          <mxGeometry x="150" y="430" width="100" height="40" as="geometry" />
        </mxCell>
        <mxCell id="AV-70D5icaVJFFxwLQuQ-17" value="Pântano" style="whiteSpace=wrap;html=1;align=center;" vertex="1" parent="1">
          <mxGeometry x="240" y="360" width="100" height="40" as="geometry" />
        </mxCell>
        <mxCell id="AV-70D5icaVJFFxwLQuQ-32" style="rounded=0;orthogonalLoop=1;jettySize=auto;html=1;entryX=0.5;entryY=0;entryDx=0;entryDy=0;endArrow=none;endFill=0;" edge="1" parent="1" source="AV-70D5icaVJFFxwLQuQ-31" target="AV-70D5icaVJFFxwLQuQ-12">
          <mxGeometry relative="1" as="geometry" />
        </mxCell>
        <mxCell id="AV-70D5icaVJFFxwLQuQ-31" value="forma_geo" style="ellipse;whiteSpace=wrap;html=1;align=center;" vertex="1" parent="1">
          <mxGeometry x="140" y="40" width="70" height="40" as="geometry" />
        </mxCell>
        <mxCell id="AV-70D5icaVJFFxwLQuQ-33" value="nome" style="ellipse;whiteSpace=wrap;html=1;align=center;" vertex="1" parent="1">
          <mxGeometry x="220" y="40" width="40" height="40" as="geometry" />
        </mxCell>
        <mxCell id="AV-70D5icaVJFFxwLQuQ-34" style="rounded=0;orthogonalLoop=1;jettySize=auto;html=1;entryX=0.82;entryY=0.05;entryDx=0;entryDy=0;entryPerimeter=0;endArrow=none;endFill=0;" edge="1" parent="1" source="AV-70D5icaVJFFxwLQuQ-33" target="AV-70D5icaVJFFxwLQuQ-12">
          <mxGeometry relative="1" as="geometry" />
        </mxCell>
        <mxCell id="AV-70D5icaVJFFxwLQuQ-35" value="D" style="ellipse;whiteSpace=wrap;html=1;aspect=fixed;" vertex="1" parent="1">
          <mxGeometry x="170" y="190" width="20" height="20" as="geometry" />
        </mxCell>
        <mxCell id="AV-70D5icaVJFFxwLQuQ-36" value="" style="endArrow=none;html=1;rounded=0;entryX=0.5;entryY=1;entryDx=0;entryDy=0;exitX=0.5;exitY=0;exitDx=0;exitDy=0;" edge="1" parent="1" source="AV-70D5icaVJFFxwLQuQ-35" target="AV-70D5icaVJFFxwLQuQ-12">
          <mxGeometry width="50" height="50" relative="1" as="geometry">
            <mxPoint x="390" y="320" as="sourcePoint" />
            <mxPoint x="440" y="270" as="targetPoint" />
          </mxGeometry>
        </mxCell>
        <mxCell id="AV-70D5icaVJFFxwLQuQ-37" value="" style="endArrow=none;html=1;rounded=0;entryX=0;entryY=0.5;entryDx=0;entryDy=0;exitX=0.75;exitY=0;exitDx=0;exitDy=0;" edge="1" parent="1" source="AV-70D5icaVJFFxwLQuQ-13" target="AV-70D5icaVJFFxwLQuQ-35">
          <mxGeometry width="50" height="50" relative="1" as="geometry">
            <mxPoint x="390" y="320" as="sourcePoint" />
            <mxPoint x="440" y="270" as="targetPoint" />
          </mxGeometry>
        </mxCell>
        <mxCell id="AV-70D5icaVJFFxwLQuQ-38" value="" style="endArrow=none;html=1;rounded=0;entryX=1;entryY=0.5;entryDx=0;entryDy=0;exitX=0.25;exitY=0;exitDx=0;exitDy=0;" edge="1" parent="1" source="AV-70D5icaVJFFxwLQuQ-14" target="AV-70D5icaVJFFxwLQuQ-35">
          <mxGeometry width="50" height="50" relative="1" as="geometry">
            <mxPoint x="390" y="320" as="sourcePoint" />
            <mxPoint x="440" y="270" as="targetPoint" />
          </mxGeometry>
        </mxCell>
        <mxCell id="AV-70D5icaVJFFxwLQuQ-39" value="" style="endArrow=none;html=1;rounded=0;exitX=0.69;exitY=-0.1;exitDx=0;exitDy=0;exitPerimeter=0;entryX=0;entryY=1;entryDx=0;entryDy=0;" edge="1" parent="1" source="AV-70D5icaVJFFxwLQuQ-15" target="AV-70D5icaVJFFxwLQuQ-35">
          <mxGeometry width="50" height="50" relative="1" as="geometry">
            <mxPoint x="390" y="320" as="sourcePoint" />
            <mxPoint x="190" y="280" as="targetPoint" />
          </mxGeometry>
        </mxCell>
        <mxCell id="AV-70D5icaVJFFxwLQuQ-40" value="" style="endArrow=none;html=1;rounded=0;entryX=1;entryY=1;entryDx=0;entryDy=0;exitX=0.5;exitY=0;exitDx=0;exitDy=0;" edge="1" parent="1" source="AV-70D5icaVJFFxwLQuQ-17" target="AV-70D5icaVJFFxwLQuQ-35">
          <mxGeometry width="50" height="50" relative="1" as="geometry">
            <mxPoint x="390" y="320" as="sourcePoint" />
            <mxPoint x="440" y="270" as="targetPoint" />
          </mxGeometry>
        </mxCell>
        <mxCell id="AV-70D5icaVJFFxwLQuQ-41" value="" style="endArrow=none;html=1;rounded=0;entryX=0.5;entryY=1;entryDx=0;entryDy=0;exitX=0.5;exitY=0;exitDx=0;exitDy=0;" edge="1" parent="1" source="AV-70D5icaVJFFxwLQuQ-16" target="AV-70D5icaVJFFxwLQuQ-35">
          <mxGeometry width="50" height="50" relative="1" as="geometry">
            <mxPoint x="390" y="320" as="sourcePoint" />
            <mxPoint x="440" y="270" as="targetPoint" />
          </mxGeometry>
        </mxCell>
        <mxCell id="AV-70D5icaVJFFxwLQuQ-46" value="" style="verticalLabelPosition=bottom;verticalAlign=top;html=1;shape=mxgraph.basic.arc;startAngle=0.510737392138477;endAngle=0.9826613490349582;rotation=-105;" vertex="1" parent="1">
          <mxGeometry x="174.5" y="312.6" width="26" height="30" as="geometry" />
        </mxCell>
        <mxCell id="AV-70D5icaVJFFxwLQuQ-48" value="" style="verticalLabelPosition=bottom;verticalAlign=top;html=1;shape=mxgraph.basic.arc;startAngle=0.510737392138477;endAngle=0.9826613490349582;rotation=-120;" vertex="1" parent="1">
          <mxGeometry x="250" y="300" width="26" height="30" as="geometry" />
        </mxCell>
        <mxCell id="AV-70D5icaVJFFxwLQuQ-49" value="" style="verticalLabelPosition=bottom;verticalAlign=top;html=1;shape=mxgraph.basic.arc;startAngle=0.510737392138477;endAngle=0.9826613490349582;rotation=-150;" vertex="1" parent="1">
          <mxGeometry x="230" y="210.00000000000003" width="26" height="30" as="geometry" />
        </mxCell>
        <mxCell id="AV-70D5icaVJFFxwLQuQ-50" value="" style="verticalLabelPosition=bottom;verticalAlign=top;html=1;shape=mxgraph.basic.arc;startAngle=0.510737392138477;endAngle=0.9826613490349582;rotation=-60;" vertex="1" parent="1">
          <mxGeometry x="120" y="210.00000000000003" width="26" height="30" as="geometry" />
        </mxCell>
        <mxCell id="AV-70D5icaVJFFxwLQuQ-51" value="" style="verticalLabelPosition=bottom;verticalAlign=top;html=1;shape=mxgraph.basic.arc;startAngle=0.510737392138477;endAngle=0.9826613490349582;rotation=-75;" vertex="1" parent="1">
          <mxGeometry x="123" y="290" width="26" height="30" as="geometry" />
        </mxCell>
        <mxCell id="AV-70D5icaVJFFxwLQuQ-53" style="orthogonalLoop=1;jettySize=auto;html=1;exitX=1;exitY=0.5;exitDx=0;exitDy=0;rounded=0;endArrow=none;endFill=0;" edge="1" parent="1" source="AV-70D5icaVJFFxwLQuQ-54" target="AV-70D5icaVJFFxwLQuQ-55">
          <mxGeometry relative="1" as="geometry" />
        </mxCell>
        <mxCell id="AV-70D5icaVJFFxwLQuQ-54" value="&lt;u&gt;ID_objeto&lt;/u&gt;" style="ellipse;whiteSpace=wrap;html=1;align=center;" vertex="1" parent="1">
          <mxGeometry x="450" y="150" width="60" height="40" as="geometry" />
        </mxCell>
        <mxCell id="AV-70D5icaVJFFxwLQuQ-55" value="Objeto móvel" style="whiteSpace=wrap;html=1;align=center;" vertex="1" parent="1">
          <mxGeometry x="561" y="120" width="100" height="40" as="geometry" />
        </mxCell>
        <mxCell id="AV-70D5icaVJFFxwLQuQ-56" value="Barco" style="whiteSpace=wrap;html=1;align=center;" vertex="1" parent="1">
          <mxGeometry x="461" y="295" width="100" height="40" as="geometry" />
        </mxCell>
        <mxCell id="AV-70D5icaVJFFxwLQuQ-57" value="Carro" style="whiteSpace=wrap;html=1;align=center;" vertex="1" parent="1">
          <mxGeometry x="710" y="302.6" width="100" height="40" as="geometry" />
        </mxCell>
        <mxCell id="AV-70D5icaVJFFxwLQuQ-59" value="Bicicleta BTT" style="whiteSpace=wrap;html=1;align=center;" vertex="1" parent="1">
          <mxGeometry x="576" y="302.6" width="100" height="40" as="geometry" />
        </mxCell>
        <mxCell id="AV-70D5icaVJFFxwLQuQ-61" style="rounded=0;orthogonalLoop=1;jettySize=auto;html=1;entryX=0;entryY=0.5;entryDx=0;entryDy=0;endArrow=none;endFill=0;" edge="1" parent="1" source="AV-70D5icaVJFFxwLQuQ-62" target="AV-70D5icaVJFFxwLQuQ-55">
          <mxGeometry relative="1" as="geometry" />
        </mxCell>
        <mxCell id="AV-70D5icaVJFFxwLQuQ-62" value="forma_geo" style="ellipse;whiteSpace=wrap;html=1;align=center;" vertex="1" parent="1">
          <mxGeometry x="450" y="110" width="60" height="40" as="geometry" />
        </mxCell>
        <mxCell id="AV-70D5icaVJFFxwLQuQ-63" value="g_posicao" style="ellipse;whiteSpace=wrap;html=1;align=center;" vertex="1" parent="1">
          <mxGeometry x="480" y="70" width="60" height="40" as="geometry" />
        </mxCell>
        <mxCell id="AV-70D5icaVJFFxwLQuQ-64" style="rounded=0;orthogonalLoop=1;jettySize=auto;html=1;entryX=0.25;entryY=0;entryDx=0;entryDy=0;endArrow=none;endFill=0;" edge="1" parent="1" source="AV-70D5icaVJFFxwLQuQ-63" target="AV-70D5icaVJFFxwLQuQ-55">
          <mxGeometry relative="1" as="geometry" />
        </mxCell>
        <mxCell id="AV-70D5icaVJFFxwLQuQ-65" value="D" style="ellipse;whiteSpace=wrap;html=1;aspect=fixed;" vertex="1" parent="1">
          <mxGeometry x="601" y="202.6" width="20" height="20" as="geometry" />
        </mxCell>
        <mxCell id="AV-70D5icaVJFFxwLQuQ-66" value="" style="endArrow=none;html=1;rounded=0;entryX=0.5;entryY=1;entryDx=0;entryDy=0;exitX=0.5;exitY=0;exitDx=0;exitDy=0;" edge="1" parent="1" source="AV-70D5icaVJFFxwLQuQ-65" target="AV-70D5icaVJFFxwLQuQ-55">
          <mxGeometry width="50" height="50" relative="1" as="geometry">
            <mxPoint x="821" y="320" as="sourcePoint" />
            <mxPoint x="871" y="270" as="targetPoint" />
          </mxGeometry>
        </mxCell>
        <mxCell id="AV-70D5icaVJFFxwLQuQ-67" value="" style="endArrow=none;html=1;rounded=0;exitX=0.75;exitY=0;exitDx=0;exitDy=0;entryX=0;entryY=1;entryDx=0;entryDy=0;fontSize=12;fillColor=default;" edge="1" parent="1" source="AV-70D5icaVJFFxwLQuQ-56" target="AV-70D5icaVJFFxwLQuQ-65">
          <mxGeometry width="50" height="50" relative="1" as="geometry">
            <mxPoint x="821" y="332.6" as="sourcePoint" />
            <mxPoint x="550" y="212.6" as="targetPoint" />
          </mxGeometry>
        </mxCell>
        <mxCell id="AV-70D5icaVJFFxwLQuQ-68" value="" style="endArrow=none;html=1;rounded=0;exitX=0.25;exitY=0;exitDx=0;exitDy=0;entryX=1;entryY=1;entryDx=0;entryDy=0;" edge="1" parent="1" source="AV-70D5icaVJFFxwLQuQ-57" target="AV-70D5icaVJFFxwLQuQ-65">
          <mxGeometry width="50" height="50" relative="1" as="geometry">
            <mxPoint x="821" y="332.6" as="sourcePoint" />
            <mxPoint x="660" y="212.6" as="targetPoint" />
          </mxGeometry>
        </mxCell>
        <mxCell id="AV-70D5icaVJFFxwLQuQ-71" value="" style="endArrow=none;html=1;rounded=0;entryX=0.5;entryY=1;entryDx=0;entryDy=0;exitX=0.5;exitY=0;exitDx=0;exitDy=0;" edge="1" parent="1" source="AV-70D5icaVJFFxwLQuQ-59" target="AV-70D5icaVJFFxwLQuQ-65">
          <mxGeometry width="50" height="50" relative="1" as="geometry">
            <mxPoint x="821" y="282.6" as="sourcePoint" />
            <mxPoint x="871" y="232.6" as="targetPoint" />
          </mxGeometry>
        </mxCell>
        <mxCell id="AV-70D5icaVJFFxwLQuQ-72" value="" style="verticalLabelPosition=bottom;verticalAlign=top;html=1;shape=mxgraph.basic.arc;startAngle=0.510737392138477;endAngle=0.9826613490349582;rotation=-105;" vertex="1" parent="1">
          <mxGeometry x="604" y="252.6" width="26" height="30" as="geometry" />
        </mxCell>
        <mxCell id="AV-70D5icaVJFFxwLQuQ-74" value="" style="verticalLabelPosition=bottom;verticalAlign=top;html=1;shape=mxgraph.basic.arc;startAngle=0.510737392138477;endAngle=0.9826613490349582;rotation=-150;" vertex="1" parent="1">
          <mxGeometry x="651" y="236.6" width="26" height="30" as="geometry" />
        </mxCell>
        <mxCell id="AV-70D5icaVJFFxwLQuQ-75" value="" style="verticalLabelPosition=bottom;verticalAlign=middle;html=1;shape=mxgraph.basic.arc;startAngle=0.510737392138477;endAngle=0.9826613490349582;rotation=-60;" vertex="1" parent="1">
          <mxGeometry x="558" y="234.6" width="26" height="30" as="geometry" />
        </mxCell>
        <mxCell id="AV-70D5icaVJFFxwLQuQ-77" value="orientacao" style="ellipse;whiteSpace=wrap;html=1;align=center;" vertex="1" parent="1">
          <mxGeometry x="540" y="50" width="60" height="40" as="geometry" />
        </mxCell>
        <mxCell id="AV-70D5icaVJFFxwLQuQ-78" value="velocidade.linear" style="ellipse;whiteSpace=wrap;html=1;align=center;" vertex="1" parent="1">
          <mxGeometry x="604" y="40" width="100" height="40" as="geometry" />
        </mxCell>
        <mxCell id="AV-70D5icaVJFFxwLQuQ-79" value="velocidade.angular" style="ellipse;whiteSpace=wrap;html=1;align=center;" vertex="1" parent="1">
          <mxGeometry x="710" y="20" width="100" height="40" as="geometry" />
        </mxCell>
        <mxCell id="AV-70D5icaVJFFxwLQuQ-80" style="rounded=0;orthogonalLoop=1;jettySize=auto;html=1;entryX=0.5;entryY=0;entryDx=0;entryDy=0;endArrow=none;endFill=0;exitX=0.733;exitY=0.967;exitDx=0;exitDy=0;exitPerimeter=0;" edge="1" parent="1" source="AV-70D5icaVJFFxwLQuQ-77" target="AV-70D5icaVJFFxwLQuQ-55">
          <mxGeometry relative="1" as="geometry">
            <mxPoint x="592" y="88" as="sourcePoint" />
            <mxPoint x="621" y="130" as="targetPoint" />
          </mxGeometry>
        </mxCell>
        <mxCell id="AV-70D5icaVJFFxwLQuQ-81" style="rounded=0;orthogonalLoop=1;jettySize=auto;html=1;entryX=0.75;entryY=0;entryDx=0;entryDy=0;endArrow=none;endFill=0;exitX=0.5;exitY=1;exitDx=0;exitDy=0;" edge="1" parent="1" source="AV-70D5icaVJFFxwLQuQ-78" target="AV-70D5icaVJFFxwLQuQ-55">
          <mxGeometry relative="1" as="geometry">
            <mxPoint x="650" y="90" as="sourcePoint" />
            <mxPoint x="621" y="130" as="targetPoint" />
          </mxGeometry>
        </mxCell>
        <mxCell id="AV-70D5icaVJFFxwLQuQ-82" value="aceleracao.linear" style="ellipse;whiteSpace=wrap;html=1;align=center;" vertex="1" parent="1">
          <mxGeometry x="715" y="70" width="100" height="40" as="geometry" />
        </mxCell>
        <mxCell id="AV-70D5icaVJFFxwLQuQ-83" value="aceleracao.angular" style="ellipse;whiteSpace=wrap;html=1;align=center;" vertex="1" parent="1">
          <mxGeometry x="710" y="112" width="110" height="38" as="geometry" />
        </mxCell>
        <mxCell id="AV-70D5icaVJFFxwLQuQ-84" style="rounded=0;orthogonalLoop=1;jettySize=auto;html=1;endArrow=none;endFill=0;exitX=0;exitY=1;exitDx=0;exitDy=0;entryX=1;entryY=0;entryDx=0;entryDy=0;" edge="1" parent="1" source="AV-70D5icaVJFFxwLQuQ-79" target="AV-70D5icaVJFFxwLQuQ-55">
          <mxGeometry relative="1" as="geometry">
            <mxPoint x="664" y="90" as="sourcePoint" />
            <mxPoint x="660" y="120" as="targetPoint" />
          </mxGeometry>
        </mxCell>
        <mxCell id="AV-70D5icaVJFFxwLQuQ-85" style="rounded=0;orthogonalLoop=1;jettySize=auto;html=1;endArrow=none;endFill=0;exitX=0;exitY=0.5;exitDx=0;exitDy=0;entryX=1;entryY=0.5;entryDx=0;entryDy=0;" edge="1" parent="1" source="AV-70D5icaVJFFxwLQuQ-82" target="AV-70D5icaVJFFxwLQuQ-55">
          <mxGeometry relative="1" as="geometry">
            <mxPoint x="725" y="104" as="sourcePoint" />
            <mxPoint x="671" y="130" as="targetPoint" />
          </mxGeometry>
        </mxCell>
        <mxCell id="AV-70D5icaVJFFxwLQuQ-86" style="rounded=0;orthogonalLoop=1;jettySize=auto;html=1;endArrow=none;endFill=0;exitX=0;exitY=0.5;exitDx=0;exitDy=0;entryX=1;entryY=0.75;entryDx=0;entryDy=0;" edge="1" parent="1" source="AV-70D5icaVJFFxwLQuQ-83" target="AV-70D5icaVJFFxwLQuQ-55">
          <mxGeometry relative="1" as="geometry">
            <mxPoint x="730" y="140" as="sourcePoint" />
            <mxPoint x="671" y="150" as="targetPoint" />
          </mxGeometry>
        </mxCell>
        <mxCell id="AV-70D5icaVJFFxwLQuQ-88" value="" style="endArrow=none;html=1;rounded=0;exitX=1;exitY=1;exitDx=0;exitDy=0;entryX=0;entryY=0.5;entryDx=0;entryDy=0;" edge="1" parent="1" source="AV-70D5icaVJFFxwLQuQ-55" target="AV-70D5icaVJFFxwLQuQ-95">
          <mxGeometry relative="1" as="geometry">
            <mxPoint x="685" y="212.18" as="sourcePoint" />
            <mxPoint x="760" y="210" as="targetPoint" />
          </mxGeometry>
        </mxCell>
        <mxCell id="AV-70D5icaVJFFxwLQuQ-89" value="1" style="resizable=0;html=1;whiteSpace=wrap;align=right;verticalAlign=bottom;" connectable="0" vertex="1" parent="AV-70D5icaVJFFxwLQuQ-88">
          <mxGeometry x="1" relative="1" as="geometry">
            <mxPoint x="-5" y="-7" as="offset" />
          </mxGeometry>
        </mxCell>
        <mxCell id="AV-70D5icaVJFFxwLQuQ-92" value="&lt;u&gt;ID_movimento&lt;/u&gt;" style="ellipse;whiteSpace=wrap;html=1;align=center;" vertex="1" parent="1">
          <mxGeometry x="880" y="111" width="100" height="40" as="geometry" />
        </mxCell>
        <mxCell id="AV-70D5icaVJFFxwLQuQ-94" value="" style="endArrow=none;html=1;rounded=0;exitX=0.5;exitY=1;exitDx=0;exitDy=0;entryX=0.25;entryY=0;entryDx=0;entryDy=0;" edge="1" parent="1" source="AV-70D5icaVJFFxwLQuQ-92" target="AV-70D5icaVJFFxwLQuQ-97">
          <mxGeometry relative="1" as="geometry">
            <mxPoint x="620" y="280" as="sourcePoint" />
            <mxPoint x="965" y="190" as="targetPoint" />
          </mxGeometry>
        </mxCell>
        <mxCell id="AV-70D5icaVJFFxwLQuQ-95" value="mantém" style="shape=rhombus;double=1;perimeter=rhombusPerimeter;whiteSpace=wrap;html=1;align=center;" vertex="1" parent="1">
          <mxGeometry x="760" y="180" width="120" height="60" as="geometry" />
        </mxCell>
        <mxCell id="AV-70D5icaVJFFxwLQuQ-97" value="Registo Movimento" style="shape=ext;margin=3;double=1;whiteSpace=wrap;html=1;align=center;" vertex="1" parent="1">
          <mxGeometry x="950" y="190" width="100" height="40" as="geometry" />
        </mxCell>
        <mxCell id="AV-70D5icaVJFFxwLQuQ-98" value="&lt;span&gt;geo_posicao&lt;/span&gt;" style="ellipse;whiteSpace=wrap;html=1;align=center;fontStyle=0" vertex="1" parent="1">
          <mxGeometry x="1020" y="110" width="100" height="40" as="geometry" />
        </mxCell>
        <mxCell id="AV-70D5icaVJFFxwLQuQ-99" value="" style="endArrow=none;html=1;rounded=0;entryX=0;entryY=1;entryDx=0;entryDy=0;exitX=0.75;exitY=0;exitDx=0;exitDy=0;" edge="1" parent="1" source="AV-70D5icaVJFFxwLQuQ-97" target="AV-70D5icaVJFFxwLQuQ-98">
          <mxGeometry relative="1" as="geometry">
            <mxPoint x="620" y="280" as="sourcePoint" />
            <mxPoint x="780" y="280" as="targetPoint" />
          </mxGeometry>
        </mxCell>
        <mxCell id="AV-70D5icaVJFFxwLQuQ-100" value="" style="shape=link;html=1;rounded=0;entryX=0;entryY=0.5;entryDx=0;entryDy=0;exitX=1;exitY=0.5;exitDx=0;exitDy=0;movable=1;resizable=1;rotatable=1;deletable=1;editable=1;locked=0;connectable=1;" edge="1" parent="1" source="AV-70D5icaVJFFxwLQuQ-95" target="AV-70D5icaVJFFxwLQuQ-97">
          <mxGeometry relative="1" as="geometry">
            <mxPoint x="874.5" y="282.6" as="sourcePoint" />
            <mxPoint x="1034.5" y="282.6" as="targetPoint" />
          </mxGeometry>
        </mxCell>
        <mxCell id="AV-70D5icaVJFFxwLQuQ-101" value="N" style="resizable=0;html=1;whiteSpace=wrap;align=right;verticalAlign=bottom;" connectable="0" vertex="1" parent="AV-70D5icaVJFFxwLQuQ-100">
          <mxGeometry x="1" relative="1" as="geometry">
            <mxPoint x="-60" as="offset" />
          </mxGeometry>
        </mxCell>
        <mxCell id="AV-70D5icaVJFFxwLQuQ-102" value="Criar tabela de restrições da velocidade dos objetos?" style="text;strokeColor=none;fillColor=none;html=1;fontSize=24;fontStyle=1;verticalAlign=middle;align=center;" vertex="1" parent="1">
          <mxGeometry x="715" y="394" width="116" height="40" as="geometry" />
        </mxCell>
      </root>
    </mxGraphModel>
  </diagram>
</mxfile>
